<svg width="397" height="238" viewBox="0 0 397 238" fill="none" xmlns="http://www.w3.org/2000/svg">
<g opacity="0.5">
<rect width="397" height="238" rx="11.0097" fill="#DCE1E5"/>
<g clip-path="url(#clip0_16744_300982)">
<rect x="23.6602" y="73.9688" width="118.507" height="140.149" rx="2.75243" fill="#F0F2F4"/>
<path d="M128.157 214.787C131.379 214.787 134.026 212.166 133.642 208.968C133.101 204.466 131.934 200.05 130.167 195.845C127.643 189.84 123.943 184.383 119.279 179.787C114.615 175.19 109.079 171.544 102.985 169.057C96.8913 166.569 90.3602 165.289 83.7645 165.289C77.1688 165.289 70.6377 166.569 64.544 169.057C58.4504 171.544 52.9136 175.19 48.2497 179.787C43.5859 184.383 39.8863 189.84 37.3622 195.845C35.5948 200.05 34.428 204.466 33.8873 208.968C33.5031 212.166 36.1504 214.787 39.3717 214.787H128.157Z" fill="#A6B6BF"/>
<ellipse cx="83.7729" cy="124.015" rx="25.1127" ry="24.7489" fill="#A6B6BF"/>
</g>
<rect x="57.2812" y="29.1953" width="282.443" height="19.4651" rx="2.75243" fill="#A6B6BF"/>
<rect x="163.008" y="184.922" width="213.226" height="20.3171" rx="2.75243" fill="#A6B6BF"/>
<rect x="163.582" y="120.531" width="127.228" height="11.6098" rx="2.75243" fill="#A6B6BF"/>
<rect x="163.582" y="73.9688" width="106.613" height="11.6098" rx="2.75243" fill="#A6B6BF"/>
<rect x="163.582" y="97.25" width="141.365" height="11.6098" rx="2.75243" fill="#A6B6BF"/>
<rect x="163.582" y="143.812" width="102.49" height="11.6098" rx="2.75243" fill="#A6B6BF"/>
</g>
<defs>
<clipPath id="clip0_16744_300982">
<rect x="23.6602" y="73.9688" width="118.507" height="140.149" rx="2.75243" fill="white"/>
</clipPath>
</defs>
</svg>
