<svg width="397" height="238" viewBox="0 0 397 238" fill="none" xmlns="http://www.w3.org/2000/svg">
<g opacity="0.5">
<rect width="397" height="238" rx="11.0097" fill="#DCE1E5"/>
<g clip-path="url(#clip0_16744_301040)">
<rect x="255.586" y="73.9688" width="118.507" height="140.149" rx="2.75243" fill="#F0F2F4"/>
<path d="M360.083 214.787C363.304 214.787 365.952 212.166 365.567 208.968C365.027 204.466 363.86 200.05 362.092 195.845C359.568 189.84 355.869 184.383 351.205 179.787C346.541 175.19 341.004 171.544 334.911 169.057C328.817 166.569 322.286 165.289 315.69 165.289C309.095 165.289 302.563 166.569 296.47 169.057C290.376 171.544 284.839 175.19 280.176 179.787C275.512 184.383 271.812 189.84 269.288 195.845C267.521 200.05 266.354 204.466 265.813 208.968C265.429 212.166 268.076 214.787 271.297 214.787H360.083Z" fill="#A6B6BF"/>
<ellipse cx="315.699" cy="124.022" rx="25.1127" ry="24.7489" fill="#A6B6BF"/>
</g>
<rect x="57.2812" y="29.1953" width="282.443" height="19.4651" rx="2.75243" fill="#A6B6BF"/>
<rect x="23.7031" y="184.922" width="213.225" height="20.3171" rx="2.75243" fill="#A6B6BF"/>
<rect x="24.2734" y="120.531" width="127.228" height="11.6098" rx="2.75243" fill="#A6B6BF"/>
<rect x="24.2734" y="73.9688" width="106.613" height="11.6098" rx="2.75243" fill="#A6B6BF"/>
<rect x="24.2734" y="97.25" width="141.365" height="11.6098" rx="2.75243" fill="#A6B6BF"/>
<rect x="24.2734" y="143.812" width="102.49" height="11.6098" rx="2.75243" fill="#A6B6BF"/>
</g>
<defs>
<clipPath id="clip0_16744_301040">
<rect x="255.586" y="73.9688" width="118.507" height="140.149" rx="2.75243" fill="white"/>
</clipPath>
</defs>
</svg>
