<svg width="397" height="238" viewBox="0 0 397 238" fill="none" xmlns="http://www.w3.org/2000/svg">
<g opacity="0.5">
<rect width="397" height="238" rx="11.0097" fill="#DCE1E5"/>
<rect x="24.3984" y="155.582" width="8.61111" height="49.5038" rx="2.75243" fill="#A6B6BF"/>
<rect x="288.473" y="155.582" width="8.61111" height="49.5038" rx="2.75243" fill="#A6B6BF"/>
<rect x="236.809" y="155.582" width="8.61111" height="49.5038" rx="2.75243" fill="#A6B6BF"/>
<rect x="107.637" y="155.582" width="8.61111" height="49.5038" rx="2.75243" fill="#A6B6BF"/>
<rect x="77.5" y="155.582" width="8.61111" height="49.5038" rx="2.75243" fill="#A6B6BF"/>
<rect x="38.75" y="155.582" width="8.61111" height="49.5038" rx="2.75243" fill="#A6B6BF"/>
<rect x="328.66" y="155.582" width="15.787" height="49.5038" rx="2.75243" fill="#A6B6BF"/>
<rect x="162.176" y="155.582" width="15.787" height="49.5038" rx="2.75243" fill="#A6B6BF"/>
<rect x="254.031" y="155.582" width="15.787" height="49.5038" rx="2.75243" fill="#A6B6BF"/>
<rect x="124.859" y="155.582" width="15.787" height="49.5038" rx="2.75243" fill="#A6B6BF"/>
<rect x="53.1016" y="155.582" width="15.787" height="49.5038" rx="2.75243" fill="#A6B6BF"/>
<rect x="186.574" y="155.582" width="15.787" height="49.5038" rx="2.75243" fill="#A6B6BF"/>
<rect x="353.055" y="155.582" width="4.30555" height="49.5038" rx="2.15278" fill="#A6B6BF"/>
<rect x="223.891" y="155.582" width="4.30555" height="49.5038" rx="2.15278" fill="#A6B6BF"/>
<rect x="210.973" y="155.582" width="4.30555" height="49.5038" rx="2.15278" fill="#A6B6BF"/>
<rect x="149.258" y="155.582" width="4.30555" height="49.5038" rx="2.15278" fill="#A6B6BF"/>
<rect x="94.7188" y="155.582" width="4.30555" height="49.5038" rx="2.15278" fill="#A6B6BF"/>
<rect x="318.609" y="155.582" width="4.30555" height="49.5038" rx="2.15278" fill="#A6B6BF"/>
<rect x="275.555" y="155.582" width="4.30555" height="49.5038" rx="2.15278" fill="#A6B6BF"/>
<rect x="305.695" y="155.582" width="4.30555" height="49.5038" rx="2.15278" fill="#A6B6BF"/>
<rect x="140.645" y="29.7031" width="229.63" height="18.3871" rx="2.75243" fill="#A6B6BF"/>
<rect x="140.645" y="94.7656" width="70.324" height="11.3151" rx="2.75243" fill="#A6B6BF"/>
<rect x="236.809" y="94.7656" width="70.324" height="11.3151" rx="2.75243" fill="#A6B6BF"/>
<rect x="140.645" y="113.148" width="41.6203" height="11.3151" rx="2.75243" fill="#A6B6BF"/>
<rect x="236.809" y="113.148" width="41.6203" height="11.3151" rx="2.75243" fill="#A6B6BF"/>
<rect x="24.3984" y="25.4609" width="96.1574" height="113.151" rx="2.75243" fill="#F0F2F4"/>
<path fill-rule="evenodd" clip-rule="evenodd" d="M73.0983 49.1726C67.7803 49.1726 59.2906 50.069 52.5116 54.372C51.256 55.1686 49.5819 54.8121 48.7727 53.5754C47.964 52.3386 48.3259 50.6895 49.5814 49.8924C57.6545 44.7687 67.3905 43.8438 73.0986 43.8438C78.8068 43.8438 88.5419 44.7687 96.6143 49.8924C97.8698 50.6896 98.2317 52.3386 97.423 53.5754C96.6137 54.8121 94.9396 55.1686 93.6841 54.372C86.9049 50.0691 78.4157 49.1726 73.0974 49.1726H73.0983ZM49.4875 73.3874C56.1314 65.6617 65.9015 62.0613 73.0983 62.0613C84.2588 62.0613 91.8966 67.6444 96.6493 74.0904C101.316 80.4212 103.367 87.7928 103.367 92.0523C103.367 95.4341 102.142 98.4141 99.9452 100.552C97.7551 102.682 94.7537 103.825 91.4743 103.825C88.687 103.825 85.7618 102.608 83.544 100.632C81.2847 98.6199 79.5816 95.6579 79.5816 92.0525C79.5816 88.3919 77.0165 85.6084 73.0983 85.6084C71.6571 85.6084 70.0906 85.971 68.9131 86.9927C67.8061 87.953 66.6147 89.8673 66.6147 93.8745C66.6147 97.8197 68.2409 103.152 71.7602 107.461C75.2115 111.688 80.44 114.893 87.7989 114.893C89.293 114.893 90.5038 116.085 90.5038 117.556C90.5038 119.028 89.293 120.221 87.7989 120.221C78.6193 120.221 71.9038 116.139 67.5457 110.801C63.2549 105.547 61.2057 99.0366 61.2057 93.8739C61.2057 88.7719 62.7709 85.2209 65.3392 82.9929C67.8364 80.8269 70.8648 80.2788 73.0989 80.2788C80.206 80.2788 84.9914 85.6512 84.9914 92.052C84.9914 93.9111 85.853 95.5037 87.1727 96.6797C88.5339 97.8923 90.203 98.4961 91.4748 98.4961C93.4653 98.4961 95.0582 97.8172 96.1444 96.7602C97.2244 95.7094 97.9582 94.1354 97.9582 92.0518C97.9582 89.0241 96.3345 82.7323 92.2728 77.2219C88.2953 71.8266 82.1518 67.3898 73.099 67.3898C67.4312 67.3898 59.1927 70.3475 53.616 76.8319C48.1885 83.1423 45.052 93.0767 49.9388 107.609C50.4089 109.006 49.6399 110.513 48.222 110.976C46.8041 111.438 45.2735 110.681 44.8041 109.285C39.3999 93.213 42.6951 81.2865 49.4882 73.3864L49.4875 73.3874Z" fill="#A6B6BF"/>
<path fill-rule="evenodd" clip-rule="evenodd" d="M73.0985 58.2815C60.5501 58.2815 47.5126 66.7919 42.4441 76.8418C41.7795 78.1591 40.1565 78.6967 38.8185 78.0419C37.4804 77.3872 36.9349 75.7885 37.5994 74.4705C43.5568 62.6596 58.4407 52.9521 73.0985 52.9521C87.74 52.9521 100.821 60.8264 107.381 74.5181C108.019 75.8491 107.44 77.4368 106.089 78.0648C104.739 78.6928 103.126 78.1231 102.489 76.7927C96.8303 64.9805 85.6655 58.2817 73.0989 58.2817L73.0985 58.2815ZM60.9341 74.5485C64.0292 72.4352 68.0292 71.1705 73.0985 71.1705C81.3379 71.1705 86.7444 74.6347 89.999 79.1161C93.1545 83.4612 94.179 88.593 94.179 92.0522C94.179 93.5233 92.9682 94.7167 91.4748 94.7167C89.9807 94.7167 88.7699 93.5233 88.7699 92.0522C88.7699 89.4392 87.9568 85.4625 85.5999 82.2164C83.3418 79.1074 79.5602 76.4988 73.0981 76.4988C68.9798 76.4988 66.0891 77.5118 64.0155 78.9277C61.9247 80.3554 60.4817 82.32 59.4842 84.496C57.4489 88.9341 57.4269 93.8805 57.4269 95.6956C57.4269 97.2181 57.8347 101.006 59.3288 105.027C60.8253 109.053 63.2835 112.978 67.1458 115.275C68.4246 116.036 68.8349 117.674 68.0628 118.934C67.2906 120.193 65.6286 120.598 64.3497 119.837C59.0235 116.669 55.9687 111.486 54.2495 106.859C52.5276 102.227 52.0173 97.8164 52.0173 95.6956V95.6491C52.0173 93.7677 52.0167 87.8367 54.5542 82.302C55.8537 79.4683 57.8556 76.6507 60.9338 74.5486L60.9341 74.5485ZM73.0985 89.3878C74.5926 89.3878 75.8034 90.5805 75.8034 92.0522C75.8034 95.302 76.626 99.0996 79.4423 102.077C82.2208 105.016 87.3681 107.605 96.9872 107.605C98.4812 107.605 99.6921 108.798 99.6921 110.27C99.6921 111.741 98.4812 112.934 96.9872 112.934C86.3929 112.934 79.5953 110.058 75.4838 105.709C71.4088 101.4 70.3943 96.0893 70.3943 92.0522C70.3943 90.5805 71.6051 89.3878 73.0985 89.3878Z" fill="#A6B6BF"/>
</g>
</svg>
